<?xml version="1.0" encoding="UTF-8"?>
<svg xmlns="http://www.w3.org/2000/svg" viewBox="0 0 1080 359.31">
  <rect width="1080" height="359.31" fill="#0d1526"/>
  <g id="Layer_1" data-name="Layer 1">
    <g>
      <path d="M257.49,242.69c-1.04,0-1.91-.1-2.59-.29-.68-.2-1.23-.42-1.64-.69-.41-.26-.73-.49-.96-.69-.23-.2-.42-.29-.56-.29-.13,0-.28.09-.45.28-.17.18-.34.39-.53.63-.19.24-.38.45-.56.63-.18.18-.37.28-.54.28-.28,0-.5-.08-.63-.23-.14-.15-.19-.39-.15-.71l.77-6.16c.02-.33.11-.58.27-.76.15-.17.35-.26.59-.26s.41.08.56.24c.15.16.27.39.37.7l.27,1.55c.15,1.42.7,2.51,1.63,3.25.93.74,2.07,1.11,3.41,1.11.89,0,1.68-.16,2.36-.49.68-.33,1.23-.78,1.65-1.37.42-.59.68-1.27.8-2.04.19-1.07.02-2.05-.51-2.96-.53-.9-1.58-1.87-3.16-2.9-1.77-1.15-3.03-2.3-3.78-3.45-.75-1.15-1.03-2.48-.85-4.02.14-1.23.59-2.4,1.34-3.48.75-1.09,1.79-1.96,3.12-2.64,1.33-.67,2.93-1.01,4.81-1.01,1.59,0,2.93.26,4.02.77,1.09.51,1.91,1.17,2.47,1.99.55.81.82,1.67.79,2.57-.02.55-.18,1-.45,1.35-.28.36-.66.53-1.13.53-.42,0-.75-.12-1-.35-.25-.23-.45-.59-.61-1.08l-.32-1.21c-.27-1.1-.76-1.93-1.45-2.47-.69-.54-1.56-.81-2.59-.81s-1.93.2-2.7.59c-.77.39-1.37.92-1.83,1.58-.45.66-.72,1.39-.82,2.2-.17,1.16.05,2.21.65,3.15.6.94,1.67,1.95,3.2,3.03,1.34.9,2.37,1.75,3.09,2.55.72.8,1.2,1.6,1.45,2.41.25.81.32,1.69.21,2.63-.13,1.28-.55,2.4-1.26,3.34-.71.94-1.65,1.68-2.8,2.2-1.16.52-2.47.78-3.93.78ZM271.37,234.95c.89-.33,1.69-.63,2.4-.9.71-.27,1.48-.56,2.31-.87.83-.31,1.63-.62,2.42-.92.79-.3,1.47-.56,2.04-.78l-.41.57c.09-.3.17-.63.22-1,.05-.37.08-.81.08-1.32,0-.8-.17-1.45-.51-1.96-.34-.51-.79-.77-1.36-.77s-1.13.21-1.73.63c-.59.42-1.15,1-1.67,1.75-.52.74-.96,1.61-1.32,2.61-.36,1-.58,2.08-.66,3.24-.13,1.75.14,3.06.8,3.94.66.88,1.61,1.33,2.83,1.33.72,0,1.43-.14,2.12-.43.69-.28,1.31-.69,1.86-1.23s.98-1.19,1.29-1.96c.17-.26.31-.44.45-.53.13-.09.27-.13.43-.13.19.01.34.1.45.26.11.16.12.41.04.76-.18.93-.61,1.8-1.31,2.64-.69.83-1.62,1.5-2.78,2.02-1.16.52-2.54.77-4.14.77-1.37,0-2.49-.26-3.38-.77-.89-.52-1.54-1.25-1.94-2.21-.4-.96-.56-2.1-.46-3.45.09-1.42.42-2.77.99-4.04.56-1.27,1.3-2.4,2.22-3.38.91-.99,1.95-1.76,3.1-2.32,1.15-.56,2.36-.85,3.61-.85.94,0,1.72.18,2.35.55.63.37,1.11.86,1.44,1.48.33.62.52,1.3.57,2.05.02.18.08.33.16.44.08.12.2.18.36.18.17,0,.29.04.37.11.08.07.12.18.12.32,0,.18-.08.34-.23.5-.15.15-.45.31-.89.46-.47.17-1.1.39-1.86.67-.77.28-1.6.58-2.51.91-.91.33-1.82.65-2.72.98-.91.33-1.74.63-2.49.9-.75.27-1.59.58-2.5.91l-.14-1.16ZM287.84,229.28c-.13-.06-.2-.18-.2-.37s.07-.41.21-.67c.44-.78,1.06-1.41,1.86-1.88s1.69-.7,2.66-.7c.65,0,1.17.15,1.54.44.37.29.56.72.56,1.29,0,.33-.07.72-.21,1.18-.14.45-.34.99-.59,1.6-.25.62-.55,1.36-.91,2.23-.36.87-.75,1.89-1.18,3.06l-.09-.73c.69-1.7,1.46-3.13,2.32-4.29.85-1.16,1.74-2.1,2.65-2.8.91-.7,1.8-1.2,2.67-1.51.87-.31,1.66-.46,2.37-.46,1,0,1.7.21,2.11.63.41.42.59,1.02.55,1.8-.04.78-.25,1.71-.63,2.79l-2.39,6.82c-.33.94-.45,1.59-.37,1.97.09.37.29.56.61.56.19,0,.4-.06.62-.19.23-.12.5-.35.82-.67.2-.18.37-.29.49-.34.12-.05.25-.04.37.02.13.07.2.2.2.37s-.07.4-.21.66c-.43.78-1.04,1.41-1.83,1.88-.8.47-1.67.7-2.64.7-.74,0-1.29-.17-1.66-.5-.37-.33-.56-.82-.58-1.45-.02-.63.13-1.4.44-2.31l2.46-7.02c.43-1.19.57-2.02.44-2.49-.14-.47-.53-.71-1.17-.71-.49,0-1.05.16-1.68.48-.64.32-1.29.8-1.95,1.44-.67.64-1.31,1.45-1.92,2.42-.62.97-1.16,2.11-1.62,3.42-.26.74-.47,1.33-.61,1.77-.15.45-.25.8-.3,1.07-.05.27-.08.49-.08.67,0,.31.05.57.14.77.09.21.14.47.14.77,0,.5-.27.9-.81,1.2-.54.3-1.27.45-2.2.45-.74,0-1.18-.28-1.34-.83-.15-.55-.02-1.41.41-2.57l3.06-8.62c.33-.95.46-1.61.37-1.99-.08-.37-.29-.56-.62-.56-.19,0-.4.06-.62.19-.23.12-.5.35-.84.67-.19.18-.35.29-.47.34-.12.05-.25.04-.37-.02ZM312.25,237.69c-.33.94-.45,1.59-.37,1.97.09.37.29.56.61.56.19,0,.4-.06.62-.19.23-.12.5-.35.82-.67.2-.17.37-.27.49-.32.12-.05.25-.05.37,0,.13.07.19.2.19.37,0,.18-.07.4-.2.66-.43.8-1.04,1.42-1.83,1.89-.8.46-1.67.69-2.64.69-.74,0-1.29-.17-1.67-.5-.37-.33-.57-.82-.58-1.45-.01-.63.15-1.41.48-2.32l2.87-7.73c.34-.94.47-1.6.38-1.98-.09-.38-.29-.57-.61-.57-.19,0-.4.06-.63.19-.23.12-.51.35-.83.67-.19.18-.35.29-.48.34-.13.05-.26.04-.37-.02-.13-.06-.19-.18-.19-.37,0-.18.07-.41.2-.67.43-.78,1.04-1.41,1.83-1.88.79-.47,1.66-.7,2.61-.7.68,0,1.2.16,1.58.49.38.33.59.82.62,1.47.04.65-.12,1.46-.46,2.42l-2.81,7.64ZM314.62,222.3c-.75,0-1.32-.21-1.72-.62-.4-.42-.57-.91-.51-1.5.05-.46.22-.89.52-1.29.3-.4.69-.72,1.17-.96.48-.24,1.02-.36,1.63-.36.8,0,1.38.21,1.75.62.37.42.52.92.45,1.51-.05.47-.22.91-.51,1.3-.29.39-.67.71-1.15.94-.47.24-1.02.36-1.62.36ZM328.37,225.65c1.46.04,2.71.39,3.74,1.07,1.03.68,1.77,1.63,2.22,2.86.45,1.23.51,2.7.2,4.43-.24,1.29-.66,2.48-1.27,3.56-.61,1.08-1.37,2.01-2.26,2.79-.9.78-1.89,1.37-2.99,1.77-1.1.4-2.26.59-3.5.55-1.42-.05-2.64-.41-3.65-1.08-1.01-.67-1.73-1.62-2.17-2.86-.44-1.23-.5-2.71-.2-4.42.24-1.31.66-2.5,1.26-3.57.6-1.07,1.34-2,2.23-2.78.88-.78,1.87-1.37,2.96-1.78,1.09-.41,2.23-.59,3.45-.54ZM324.58,241.21c.52.05,1.03-.02,1.52-.2.49-.18.97-.48,1.42-.88.46-.4.88-.91,1.26-1.5.39-.6.73-1.29,1.03-2.08.3-.79.55-1.66.76-2.61.3-1.48.39-2.72.28-3.7-.11-.99-.38-1.74-.82-2.25-.44-.52-1.02-.8-1.73-.86-.51-.05-1.01.02-1.5.2-.49.18-.95.47-1.4.87-.45.4-.86.9-1.24,1.5-.38.61-.72,1.3-1.02,2.09-.3.79-.55,1.66-.75,2.61-.3,1.48-.39,2.72-.29,3.7.1.99.37,1.73.79,2.24.43.51.98.8,1.66.87ZM338.02,229.28c-.13-.06-.2-.18-.2-.37s.07-.41.21-.67c.28-.52.66-.98,1.12-1.36.46-.39.98-.69,1.55-.9.57-.21,1.16-.32,1.78-.32s1.07.15,1.41.44c.33.29.5.73.5,1.31,0,.49-.1,1.06-.3,1.71-.2.65-.44,1.33-.72,2.04-.28.71-.53,1.39-.76,2.04-.23.65-.36,1.22-.41,1.71l-.28-.04c.39-1.4.88-2.67,1.46-3.8.58-1.13,1.22-2.1,1.92-2.91.7-.81,1.42-1.42,2.17-1.85.75-.43,1.48-.64,2.21-.64.89,0,1.56.25,2.01.75.45.5.66,1.16.64,1.99-.01.62-.13,1.15-.36,1.59-.23.45-.51.79-.86,1.02-.35.24-.73.36-1.15.36-.45,0-.78-.11-1-.32-.21-.21-.32-.46-.32-.75,0-.25.04-.49.12-.72.08-.23.12-.48.12-.76s-.07-.52-.2-.69c-.14-.18-.35-.27-.65-.27-.52,0-1.12.31-1.79.93-.67.62-1.35,1.54-2.03,2.76-.68,1.22-1.31,2.73-1.9,4.53-.27.83-.47,1.49-.6,1.98-.12.49-.19.93-.19,1.32,0,.3.06.53.17.69.11.16.23.31.35.45.12.14.18.35.18.62s-.13.53-.38.76c-.26.23-.63.42-1.11.55-.49.14-1.09.2-1.8.2-.55,0-.95-.12-1.21-.37-.26-.24-.39-.61-.37-1.11.01-.5.15-1.13.41-1.89l2.85-8.65c.32-.95.44-1.61.35-1.99s-.3-.56-.63-.56c-.19,0-.4.06-.62.19-.23.12-.5.35-.84.67-.19.18-.35.29-.47.34-.12.05-.25.04-.37-.02ZM363.68,237.96c-.45.77-.63,1.4-.53,1.88.09.48.39.79.87.93l.96.18c.2.06.35.15.45.27.09.12.14.24.14.37,0,.21-.09.39-.26.52-.17.13-.41.2-.72.2h-5.41c-.33,0-.58-.06-.74-.17s-.24-.28-.24-.49c0-.2.07-.37.22-.52.15-.14.41-.29.77-.45.43-.13.87-.44,1.32-.92.45-.48.9-1.12,1.35-1.93l9.35-15.17c1.34-1.93,2.66-3.36,3.96-4.27,1.3-.91,2.61-1.37,3.93-1.37.45,0,.77.07.97.2.2.13.29.3.29.52,0,.15-.05.29-.15.41-.1.12-.25.21-.45.28-.46.11-.83.34-1.09.71-.26.37-.4.9-.43,1.58,0,.43,0,1.03-.03,1.81-.02.78-.04,1.67-.05,2.67-.02,1-.04,2.06-.06,3.18-.02,1.12-.04,2.23-.06,3.33-.02,1.1-.04,2.15-.05,3.13-.02.98-.03,1.84-.04,2.58,0,.74,0,1.3,0,1.66s.05.65.15.88c.1.23.27.42.5.58.23.15.55.3.95.45.36.13.53.34.53.64,0,.19-.08.35-.25.48-.17.13-.4.2-.71.2h-7.25c-.25,0-.44-.06-.56-.18-.12-.12-.19-.27-.19-.45,0-.17.06-.31.19-.43.12-.12.29-.22.51-.3l1.26-.27c.36-.09.62-.28.8-.54.18-.27.27-.62.28-1.06.01-.43.03-1.03.04-1.81.02-.78.04-1.67.06-2.66.02-1,.05-2.06.08-3.18.03-1.12.06-2.25.09-3.39.03-1.14.05-2.23.07-3.26.02-1.03.04-1.96.05-2.79.02-.83.03-1.49.03-1.99l.82.27c-.2.12-.45.3-.73.55-.28.25-.61.58-.97,1.01-.36.42-.78.96-1.26,1.63l-8.78,14.5ZM365.11,234.11l.45-1.23h10.01l-.12,1.23h-10.33ZM384.57,229.28c-.13-.06-.2-.18-.2-.37s.07-.41.21-.67c.28-.52.66-.98,1.12-1.36.46-.39.98-.69,1.55-.9.57-.21,1.16-.32,1.78-.32s1.07.15,1.41.44c.33.29.5.73.5,1.31,0,.49-.1,1.06-.3,1.71-.2.65-.44,1.33-.72,2.04-.28.71-.53,1.39-.76,2.04-.23.65-.36,1.22-.41,1.71l-.28-.04c.39-1.4.88-2.67,1.46-3.8.58-1.13,1.22-2.1,1.92-2.91.7-.81,1.42-1.42,2.17-1.85.75-.43,1.48-.64,2.21-.64.89,0,1.56.25,2.01.75.45.5.66,1.16.64,1.99-.01.62-.13,1.15-.36,1.59-.23.45-.51.79-.86,1.02-.35.24-.73.36-1.15.36-.45,0-.78-.11-1-.32-.21-.21-.32-.46-.32-.75,0-.25.04-.49.12-.72.08-.23.12-.48.12-.76s-.07-.52-.2-.69c-.14-.18-.35-.27-.65-.27-.52,0-1.12.31-1.79.93-.67.62-1.35,1.54-2.03,2.76-.68,1.22-1.31,2.73-1.9,4.53-.27.83-.47,1.49-.6,1.98-.12.49-.19.93-.19,1.32,0,.3.06.53.17.69.11.16.23.31.35.45.12.14.18.35.18.62s-.13.53-.38.76c-.26.23-.63.42-1.11.55-.49.14-1.09.2-1.8.2-.55,0-.95-.12-1.21-.37-.26-.24-.39-.61-.37-1.11.01-.5.15-1.13.41-1.89l2.85-8.65c.32-.95.44-1.61.35-1.99s-.3-.56-.63-.56c-.19,0-.4.06-.62.19-.23.12-.5.35-.84.67-.19.18-.35.29-.47.34-.12.05-.25.04-.37-.02ZM403.29,227.91l-1.39-.28c-.19-.06-.34-.15-.44-.28-.1-.12-.15-.26-.15-.42,0-.2.09-.37.27-.49.18-.12.42-.19.71-.19h1.58c.27,0,.51-.06.72-.17.21-.11.41-.27.6-.47l1.94-2.62c.15-.19.31-.32.47-.39s.34-.11.53-.11c.21,0,.38.06.49.17.11.11.17.28.17.49,0,.12-.02.29-.06.5-.04.21-.1.46-.19.75l-3.9,12.79c-.37,1.21-.46,2.02-.27,2.41.19.4.61.6,1.25.6.55,0,1.06-.12,1.54-.37.48-.24.98-.66,1.5-1.24.13-.15.25-.26.35-.31.1-.05.2-.08.31-.08.14,0,.25.05.33.14.08.1.1.23.08.39-.04.39-.23.81-.57,1.26-.34.45-.8.88-1.37,1.28-.57.4-1.23.74-1.99,1-.75.26-1.56.39-2.41.39-.91,0-1.6-.19-2.06-.56-.46-.37-.71-.92-.76-1.65-.05-.72.09-1.61.41-2.67l2.56-8.21c.19-.59.26-1,.22-1.23-.04-.23-.2-.37-.49-.45ZM406.3,227.8l.5-1.5h4.81c.42,0,.62.18.62.53,0,.3-.13.53-.39.7-.26.17-.62.26-1.07.26h-4.47ZM419.32,241.68c0-.18.07-.33.21-.45s.35-.22.62-.28l1.05-.2c.21-.04.41-.11.58-.23.17-.12.33-.3.48-.54.15-.24.29-.57.42-.99.13-.52.31-1.19.53-2.01.22-.82.47-1.73.74-2.74.27-1.01.56-2.07.86-3.17.3-1.1.6-2.21.9-3.3.3-1.1.57-2.14.83-3.12.26-.98.48-1.86.67-2.64.19-.78.33-1.4.41-1.86.09-.37.09-.64,0-.83-.1-.18-.31-.31-.63-.38l-.98-.23c-.27-.07-.47-.15-.58-.25-.11-.09-.17-.23-.17-.39,0-.21.09-.38.26-.51.17-.12.43-.19.77-.19h8.76c1.65,0,3.16.29,4.52.86,1.37.58,2.52,1.4,3.45,2.48.94,1.08,1.59,2.38,1.97,3.89.37,1.51.41,3.21.1,5.08-.34,1.99-.98,3.77-1.9,5.33-.92,1.56-2.07,2.88-3.45,3.96-1.38,1.08-2.94,1.9-4.67,2.47-1.73.56-3.6.85-5.59.85h-9.35c-.31,0-.52-.06-.63-.18-.11-.12-.17-.27-.17-.45ZM429.71,240.88c1.39,0,2.69-.24,3.91-.73,1.22-.49,2.32-1.21,3.29-2.17.98-.96,1.81-2.14,2.49-3.53.68-1.39,1.17-3,1.47-4.82.32-1.8.37-3.38.16-4.74-.21-1.35-.62-2.49-1.21-3.4-.59-.91-1.31-1.6-2.15-2.07-.84-.46-1.75-.69-2.72-.69h-1.71c-.39,0-.72.12-.99.36-.27.24-.48.61-.65,1.1-.11.47-.26,1.11-.47,1.9-.21.79-.45,1.69-.73,2.69-.28,1-.57,2.06-.88,3.17-.31,1.11-.62,2.22-.93,3.33-.31,1.11-.6,2.17-.86,3.18-.27,1.01-.5,1.92-.69,2.72-.19.81-.32,1.45-.39,1.94-.11.59-.07,1.04.12,1.33.18.29.52.44,1.01.44h1.94ZM451.76,237.69c-.33.94-.45,1.59-.37,1.97.09.37.29.56.61.56.19,0,.4-.06.62-.19.23-.12.5-.35.82-.67.2-.17.37-.27.49-.32.12-.05.25-.05.37,0,.13.07.19.2.19.37,0,.18-.07.4-.2.66-.43.8-1.04,1.42-1.83,1.89-.8.46-1.67.69-2.64.69-.74,0-1.29-.17-1.67-.5-.37-.33-.57-.82-.58-1.45-.01-.63.15-1.41.48-2.32l2.87-7.73c.34-.94.47-1.6.38-1.98-.09-.38-.29-.57-.61-.57-.19,0-.4.06-.63.19-.23.12-.51.35-.83.67-.19.18-.35.29-.48.34-.13.05-.26.04-.37-.02-.13-.06-.19-.18-.19-.37,0-.18.07-.41.2-.67.43-.78,1.04-1.41,1.83-1.88.79-.47,1.66-.7,2.61-.7.68,0,1.2.16,1.58.49.38.33.59.82.62,1.47.04.65-.12,1.46-.46,2.42l-2.81,7.64ZM454.13,222.3c-.75,0-1.32-.21-1.72-.62-.4-.42-.57-.91-.51-1.5.05-.46.22-.89.52-1.29.3-.4.69-.72,1.17-.96.48-.24,1.02-.36,1.63-.36.8,0,1.38.21,1.75.62.37.42.52.92.45,1.51-.05.47-.22.91-.51,1.3-.29.39-.67.71-1.15.94-.47.24-1.02.36-1.62.36ZM459.29,229.28c-.13-.06-.2-.18-.2-.37s.07-.41.21-.67c.28-.52.66-.98,1.12-1.36.46-.39.98-.69,1.55-.9.57-.21,1.16-.32,1.78-.32s1.07.15,1.41.44c.33.29.5.73.5,1.31,0,.49-.1,1.06-.3,1.71-.2.65-.44,1.33-.72,2.04-.28.71-.53,1.39-.76,2.04-.23.65-.36,1.22-.41,1.71l-.28-.04c.39-1.4.88-2.67,1.46-3.8.58-1.13,1.22-2.1,1.92-2.91.7-.81,1.42-1.42,2.17-1.85.75-.43,1.48-.64,2.21-.64.89,0,1.56.25,2.01.75.45.5.66,1.16.64,1.99-.01.62-.13,1.15-.36,1.59-.23.45-.51.79-.86,1.02-.35.24-.73.36-1.15.36-.45,0-.78-.11-1-.32-.21-.21-.32-.46-.32-.75,0-.25.04-.49.12-.72.08-.23.12-.48.12-.76s-.07-.52-.2-.69c-.14-.18-.35-.27-.65-.27-.52,0-1.12.31-1.79.93-.67.62-1.35,1.54-2.03,2.76-.68,1.22-1.32,2.73-1.9,4.53-.27.83-.47,1.49-.6,1.98-.12.49-.19.93-.19,1.32,0,.3.06.53.17.69.11.16.23.31.35.45.12.14.18.35.18.62s-.13.53-.38.76c-.26.23-.63.42-1.11.55-.49.14-1.09.2-1.8.2-.55,0-.95-.12-1.21-.37-.26-.24-.39-.61-.37-1.11.01-.5.15-1.13.41-1.89l2.85-8.65c.32-.95.44-1.61.35-1.99-.09-.37-.3-.56-.63-.56-.19,0-.4.06-.62.19-.23.12-.5.35-.84.67-.19.18-.35.29-.47.34-.12.05-.25.04-.37-.02ZM476.09,234.95c.89-.33,1.69-.63,2.4-.9.71-.27,1.48-.56,2.31-.87.83-.31,1.63-.62,2.42-.92.79-.3,1.47-.56,2.04-.78l-.41.57c.09-.3.17-.63.22-1,.05-.37.08-.81.08-1.32,0-.8-.17-1.45-.51-1.96-.34-.51-.79-.77-1.36-.77s-1.13.21-1.73.63c-.59.42-1.15,1-1.67,1.75-.52.74-.96,1.61-1.32,2.61-.36,1-.58,2.08-.66,3.24-.13,1.75.14,3.06.8,3.94.66.88,1.61,1.33,2.83,1.33.72,0,1.43-.14,2.12-.43.69-.28,1.31-.69,1.86-1.23s.98-1.19,1.29-1.96c.17-.26.31-.44.45-.53.13-.09.27-.13.43-.13.19.01.34.1.45.26.11.16.12.41.04.76-.18.93-.61,1.8-1.31,2.64-.69.83-1.62,1.5-2.78,2.02-1.16.52-2.54.77-4.14.77-1.37,0-2.49-.26-3.38-.77-.89-.52-1.54-1.25-1.94-2.21-.4-.96-.56-2.1-.46-3.45.09-1.42.42-2.77.99-4.04.56-1.27,1.3-2.4,2.22-3.38.91-.99,1.95-1.76,3.1-2.32,1.15-.56,2.36-.85,3.61-.85.94,0,1.72.18,2.35.55.63.37,1.11.86,1.44,1.48.33.62.52,1.3.57,2.05.02.18.08.33.16.44.08.12.2.18.36.18.17,0,.29.04.37.11.08.07.12.18.12.32,0,.18-.08.34-.23.5s-.45.31-.89.46c-.47.17-1.1.39-1.86.67-.77.28-1.6.58-2.51.91-.91.33-1.82.65-2.72.98-.91.33-1.74.63-2.49.9-.75.27-1.59.58-2.5.91l-.14-1.16ZM500.84,227.04c-.8,0-1.58.3-2.35.91-.77.61-1.44,1.43-2.01,2.48-.57,1.05-.96,2.26-1.16,3.64-.3,2.13-.15,3.72.45,4.78.6,1.06,1.52,1.59,2.75,1.58.59,0,1.18-.13,1.77-.38.59-.26,1.12-.63,1.61-1.13.49-.5.87-1.11,1.14-1.83.19-.27.35-.47.48-.6.13-.12.28-.19.46-.19.19,0,.33.09.42.27.09.18.1.43.03.77-.11.59-.34,1.2-.71,1.83-.37.62-.86,1.2-1.49,1.74-.62.53-1.37.96-2.24,1.29s-1.87.49-3,.49c-2.18,0-3.76-.72-4.74-2.16-.97-1.44-1.25-3.4-.82-5.87.21-1.25.61-2.42,1.18-3.51.58-1.09,1.3-2.05,2.17-2.87s1.87-1.46,2.98-1.92c1.12-.46,2.31-.69,3.58-.69,1.04,0,1.91.18,2.59.54.68.36,1.19.84,1.52,1.42.33.59.49,1.23.46,1.93-.02.76-.25,1.34-.69,1.75-.43.4-.92.61-1.45.61-.47,0-.84-.12-1.1-.36-.26-.24-.38-.54-.38-.91.01-.32.06-.63.15-.94.09-.31.14-.63.15-.98,0-.5-.16-.9-.47-1.21-.31-.31-.75-.46-1.31-.46ZM510.78,227.91l-1.39-.28c-.19-.06-.34-.15-.44-.28-.1-.12-.15-.26-.15-.42,0-.2.09-.37.27-.49.18-.12.42-.19.71-.19h1.58c.27,0,.51-.06.72-.17.21-.11.41-.27.6-.47l1.94-2.62c.15-.19.31-.32.47-.39.16-.07.34-.11.53-.11.21,0,.38.06.49.17.11.11.17.28.17.49,0,.12-.02.29-.06.5-.04.21-.1.46-.19.75l-3.9,12.79c-.37,1.21-.46,2.02-.27,2.41.19.4.61.6,1.25.6.55,0,1.06-.12,1.54-.37.48-.24.98-.66,1.5-1.24.13-.15.25-.26.35-.31.1-.05.2-.08.31-.08.14,0,.25.05.33.14.08.1.1.23.08.39-.04.39-.23.81-.57,1.26-.34.45-.8.88-1.37,1.28-.57.4-1.23.74-1.99,1-.75.26-1.56.39-2.41.39-.91,0-1.6-.19-2.06-.56-.46-.37-.71-.92-.76-1.65-.05-.72.09-1.61.41-2.67l2.56-8.21c.19-.59.26-1,.22-1.23-.04-.23-.2-.37-.49-.45ZM513.79,227.8l.5-1.5h4.81c.42,0,.62.18.62.53,0,.3-.13.53-.39.7-.26.17-.62.26-1.07.26h-4.47ZM530.06,225.65c1.46.04,2.71.39,3.74,1.07,1.03.68,1.77,1.63,2.22,2.86.45,1.23.51,2.7.2,4.43-.24,1.29-.66,2.48-1.27,3.56-.61,1.08-1.37,2.01-2.26,2.79-.9.78-1.89,1.37-2.99,1.77-1.1.4-2.26.59-3.5.55-1.42-.05-2.64-.41-3.65-1.08-1.01-.67-1.73-1.62-2.17-2.86-.44-1.23-.5-2.71-.2-4.42.24-1.31.66-2.5,1.26-3.57.6-1.07,1.34-2,2.23-2.78.88-.78,1.87-1.37,2.96-1.78,1.09-.41,2.23-.59,3.45-.54ZM526.27,241.21c.52.05,1.03-.02,1.52-.2.49-.18.97-.48,1.42-.88.46-.4.88-.91,1.26-1.5.39-.6.73-1.29,1.03-2.08.3-.79.55-1.66.76-2.61.3-1.48.39-2.72.28-3.7-.11-.99-.38-1.74-.82-2.25-.44-.52-1.02-.8-1.73-.86-.51-.05-1.01.02-1.5.2-.49.18-.95.47-1.4.87-.45.4-.86.9-1.24,1.5-.38.61-.72,1.3-1.02,2.09-.3.79-.55,1.66-.75,2.61-.3,1.48-.39,2.72-.29,3.7.1.99.36,1.73.79,2.24.43.51.98.8,1.66.87ZM539.71,229.28c-.13-.06-.2-.18-.2-.37s.07-.41.21-.67c.28-.52.66-.98,1.12-1.36.46-.39.98-.69,1.55-.9.57-.21,1.16-.32,1.78-.32s1.07.15,1.41.44c.33.29.5.73.5,1.31,0,.49-.1,1.06-.3,1.71-.2.65-.44,1.33-.72,2.04-.28.71-.53,1.39-.76,2.04-.23.65-.36,1.22-.41,1.71l-.28-.04c.39-1.4.88-2.67,1.46-3.8.58-1.13,1.22-2.1,1.92-2.91.7-.81,1.42-1.42,2.17-1.85.75-.43,1.48-.64,2.21-.64.89,0,1.56.25,2.01.75.45.5.66,1.16.64,1.99-.01.62-.13,1.15-.36,1.59-.23.45-.51.79-.86,1.02-.35.24-.73.36-1.15.36-.45,0-.78-.11-1-.32-.21-.21-.32-.46-.32-.75,0-.25.04-.49.12-.72.08-.23.12-.48.12-.76s-.07-.52-.2-.69c-.14-.18-.35-.27-.65-.27-.52,0-1.12.31-1.79.93-.67.62-1.35,1.54-2.03,2.76-.68,1.22-1.32,2.73-1.9,4.53-.27.83-.47,1.49-.6,1.98-.12.49-.19.93-.19,1.32,0,.3.06.53.17.69.11.16.23.31.35.45.12.14.18.35.18.62s-.13.53-.38.76c-.26.23-.63.42-1.11.55-.49.14-1.09.2-1.8.2-.55,0-.95-.12-1.21-.37-.26-.24-.39-.61-.37-1.11.01-.5.15-1.13.41-1.89l2.85-8.65c.32-.95.44-1.61.35-1.99-.09-.37-.3-.56-.63-.56-.19,0-.4.06-.62.19-.23.12-.5.35-.84.67-.19.18-.35.29-.47.34-.12.05-.25.04-.37-.02ZM565.25,235.57c-.71,0-1.26-.2-1.63-.59-.37-.39-.53-.88-.47-1.46.05-.45.22-.87.51-1.25.29-.38.67-.69,1.15-.92.47-.23,1.02-.35,1.62-.35.74,0,1.28.2,1.62.6.34.4.48.9.41,1.5-.05.44-.21.85-.49,1.22-.28.37-.65.67-1.12.9-.47.23-1,.34-1.59.34ZM596.57,234.86l3.83-13.21c.2-.76.24-1.35.12-1.78-.12-.43-.44-.72-.96-.87l-.71-.18c-.31-.12-.53-.23-.67-.35-.14-.11-.2-.25-.19-.42,0-.2.09-.37.26-.49.17-.12.42-.19.76-.19h6.18c.27,0,.48.06.61.17.14.11.2.25.2.42,0,.21-.07.38-.2.51-.13.12-.37.24-.71.35l-.91.2c-.52.17-.95.45-1.28.85-.33.4-.62,1.03-.85,1.9l-3.85,13.23c-.51,1.78-1.21,3.24-2.1,4.39-.89,1.15-1.98,2-3.27,2.56-1.29.56-2.8.84-4.55.84-1.54,0-2.82-.26-3.84-.78-1.02-.52-1.77-1.23-2.27-2.13-.5-.9-.75-1.9-.75-3.02.01-.46.07-1.02.18-1.67.11-.65.24-1.32.4-2.02.16-.7.32-1.37.49-1.99l3.03-10.77c.12-.34.13-.65.04-.92-.09-.27-.28-.44-.56-.53l-.98-.21c-.27-.11-.46-.21-.57-.32-.11-.11-.15-.25-.14-.43,0-.18.08-.32.25-.44.17-.11.4-.17.69-.17h7.71c.55,0,.82.18.82.55-.01.17-.09.32-.23.47-.14.15-.37.26-.69.35l-1.14.25c-.32.08-.57.23-.76.44-.18.21-.34.53-.47.97l-3.03,10.77c-.33,1.31-.58,2.41-.74,3.3-.16.9-.25,1.66-.26,2.29,0,1.42.39,2.5,1.18,3.22.79.72,1.87,1.09,3.25,1.09,1.53,0,2.86-.48,4-1.45,1.13-.97,2.02-2.56,2.66-4.76ZM610.04,239.5c-.1.37-.1.66,0,.86.09.21.3.34.61.4l1.02.21c.24.06.41.14.52.24.11.1.16.23.16.4,0,.2-.1.37-.28.49-.19.12-.43.19-.73.19h-7.62c-.33,0-.56-.06-.68-.17-.12-.11-.18-.26-.18-.44-.01-.19.05-.35.2-.47s.33-.22.57-.28l1.1-.2c.36-.07.64-.21.85-.41.21-.2.38-.5.51-.89.12-.46.28-1.1.5-1.9.21-.8.46-1.71.74-2.73.28-1.02.57-2.1.88-3.22.31-1.13.62-2.26.93-3.4.31-1.14.59-2.23.85-3.27.26-1.04.49-1.97.69-2.8.2-.83.35-1.5.45-1.99.08-.34.08-.61,0-.8-.08-.19-.28-.32-.61-.39l-1.05-.23c-.25-.07-.43-.16-.53-.26-.11-.1-.16-.23-.16-.4,0-.21.1-.38.3-.5.2-.12.5-.18.89-.18h7.53c.33,0,.55.05.67.15.11.1.17.24.17.42,0,.2-.07.36-.21.48-.14.12-.35.21-.62.28l-1.18.29c-.33.07-.59.18-.77.34-.18.15-.33.41-.44.77-.15.53-.35,1.24-.59,2.11-.24.87-.5,1.85-.8,2.94-.3,1.09-.6,2.22-.92,3.4-.31,1.18-.62,2.35-.93,3.5-.3,1.15-.58,2.23-.84,3.23-.26,1-.47,1.87-.64,2.61-.17.74-.29,1.28-.35,1.62ZM625.35,231.37c-.4.76-.89,1.68-1.46,2.77-.57,1.09-1.17,2.25-1.81,3.49-.64,1.24-1.27,2.48-1.91,3.71-.64,1.23-1.25,2.4-1.82,3.51-.57,1.1-1.06,2.05-1.48,2.85-.23.36-.48.6-.76.74-.28.14-.57.16-.86.06-.28-.11-.45-.29-.49-.54-.04-.26.04-.56.26-.92.43-.8.95-1.74,1.56-2.82.61-1.09,1.26-2.24,1.96-3.46.69-1.22,1.39-2.44,2.08-3.66.69-1.22,1.34-2.36,1.94-3.44.6-1.07,1.1-2,1.5-2.77.42-.77.91-1.7,1.47-2.8.56-1.09,1.16-2.26,1.79-3.51.63-1.25,1.26-2.49,1.91-3.74.64-1.25,1.24-2.42,1.81-3.53.56-1.1,1.06-2.05,1.49-2.85.23-.36.47-.61.75-.76.27-.15.56-.17.85-.06.25.1.39.28.41.55.02.27-.06.58-.25.93-.43.8-.94,1.74-1.53,2.83-.59,1.09-1.23,2.25-1.91,3.48s-1.36,2.46-2.04,3.69c-.68,1.23-1.32,2.38-1.92,3.46-.6,1.08-1.11,2.01-1.54,2.78ZM650.89,234.86l3.83-13.21c.2-.76.24-1.35.12-1.78-.12-.43-.44-.72-.96-.87l-.71-.18c-.31-.12-.53-.23-.67-.35-.14-.11-.2-.25-.19-.42,0-.2.09-.37.26-.49.17-.12.42-.19.76-.19h6.18c.27,0,.48.06.61.17.14.11.2.25.2.42,0,.21-.07.38-.2.51-.13.12-.37.24-.71.35l-.91.2c-.52.17-.95.45-1.28.85-.33.4-.62,1.03-.85,1.9l-3.85,13.23c-.51,1.78-1.21,3.24-2.1,4.39-.89,1.15-1.98,2-3.27,2.56-1.29.56-2.8.84-4.55.84-1.54,0-2.82-.26-3.84-.78-1.02-.52-1.77-1.23-2.27-2.13-.5-.9-.75-1.9-.75-3.02.01-.46.07-1.02.18-1.67.11-.65.24-1.32.4-2.02.16-.7.32-1.37.49-1.99l3.03-10.77c.12-.34.13-.65.04-.92-.09-.27-.28-.44-.56-.53l-.98-.21c-.27-.11-.46-.21-.57-.32-.11-.11-.15-.25-.14-.43,0-.18.08-.32.25-.44.17-.11.4-.17.69-.17h7.71c.55,0,.82.18.82.55-.01.17-.09.32-.23.47-.14.15-.37.26-.69.35l-1.14.25c-.32.08-.57.23-.76.44-.18.21-.34.53-.47.97l-3.03,10.77c-.33,1.31-.58,2.41-.74,3.3-.16.9-.25,1.66-.26,2.29,0,1.42.39,2.5,1.18,3.22.79.72,1.87,1.09,3.25,1.09,1.53,0,2.86-.48,4-1.45,1.13-.97,2.02-2.56,2.66-4.76ZM668.41,229.39l.89,1.12-6.04,7.89c-.56.74-.83,1.3-.82,1.69.01.39.24.64.69.75l.66.14c.2.05.35.12.45.21.09.1.14.22.14.37,0,.21-.09.39-.28.53-.18.14-.41.2-.69.2h-6c-.27,0-.47-.06-.61-.17-.13-.11-.2-.26-.2-.44,0-.19.06-.34.17-.45.11-.11.32-.22.61-.33.34-.06.68-.15,1.01-.28.33-.13.65-.3.97-.52.32-.21.65-.48.99-.79.34-.31.68-.69,1.02-1.11l7.02-8.81ZM668.61,220.24c.12.36.31.91.57,1.65.26.74.57,1.62.93,2.63.36,1.01.74,2.09,1.15,3.24.41,1.15.83,2.31,1.25,3.48.42,1.17.83,2.28,1.22,3.34.39,1.06.74,2,1.06,2.84.31.84.57,1.49.77,1.95.12.33.26.6.43.81.17.21.37.37.62.49.25.12.55.22.91.3.5.14.75.36.75.66,0,.19-.09.35-.28.48-.18.13-.42.2-.72.2h-7.02c-.34,0-.58-.06-.71-.17-.13-.11-.2-.26-.2-.44,0-.17.06-.31.19-.44.12-.12.32-.23.6-.31l.8-.14c.34-.11.55-.28.63-.53.08-.25.04-.6-.12-1.05-.11-.31-.29-.83-.56-1.56-.27-.73-.58-1.6-.94-2.62-.36-1.02-.75-2.1-1.18-3.26-.42-1.16-.85-2.33-1.28-3.51-.43-1.18-.85-2.3-1.25-3.37-.4-1.06-.75-2.01-1.06-2.83-.31-.83-.56-1.46-.75-1.9-.19-.47-.4-.81-.63-1.01-.23-.2-.58-.35-1.06-.45-.28-.08-.49-.18-.61-.3-.12-.12-.18-.26-.18-.41.01-.2.11-.36.29-.47.18-.11.42-.17.72-.17h7.09c.32,0,.55.05.69.15.14.1.21.25.21.45,0,.17-.07.31-.21.45-.14.13-.35.24-.62.32l-.96.18c-.28.07-.47.22-.57.45-.1.23-.09.52.02.86ZM671.15,229.87l-1.07-.93,6.3-8.53c.7-.88,1.34-1.58,1.91-2.1.58-.52,1.13-.9,1.66-1.14.53-.24,1.09-.36,1.66-.36s1.04.15,1.34.45c.3.3.45.67.45,1.11,0,.55-.19.99-.56,1.33-.37.34-.88.52-1.52.54-.33.01-.63,0-.89,0-.26-.02-.55,0-.85.08-.38.06-.74.18-1.08.37-.34.18-.69.45-1.04.81-.36.36-.75.83-1.19,1.41l-5.11,6.96ZM698.03,229.78l.23-.75c-1.72.12-3.27.51-4.64,1.17-1.37.66-2.51,1.5-3.4,2.52-.9,1.02-1.5,2.14-1.81,3.37-.28,1.19-.28,2.29,0,3.29.28,1.01.88,1.82,1.77,2.42.9.61,2.12.91,3.66.91,1.34,0,2.59-.19,3.73-.57,1.15-.38,2.21-.93,3.2-1.64.99-.71,1.91-1.56,2.78-2.55l-.78-.69c-.96,1.19-2.03,2.07-3.2,2.64-1.17.58-2.38.86-3.62.86-1.57,0-2.68-.5-3.33-1.5-.65-1-.74-2.4-.25-4.18.25-.87.64-1.68,1.18-2.45.54-.77,1.2-1.41,1.97-1.92.77-.52,1.61-.83,2.51-.93ZM702.89,218.12c1.06,0,1.79.41,2.2,1.23.41.82.42,1.97.04,3.45-.38,1.46-1.01,2.66-1.89,3.59-.88.93-1.99,1.55-3.35,1.84l.02.61c1.63-.23,3.03-.61,4.22-1.17,1.19-.55,2.16-1.25,2.91-2.1.75-.85,1.29-1.82,1.59-2.91.31-1.08.3-2.05-.02-2.91-.32-.86-.91-1.54-1.75-2.04-.85-.5-1.93-.75-3.25-.75-1.53,0-2.94.3-4.23.89-1.29.59-2.38,1.39-3.27,2.38-.89.99-1.51,2.09-1.87,3.29-.26.96-.34,1.84-.22,2.63.11.79.41,1.46.89,2,.48.55,1.12.96,1.93,1.25.68.24,1.21.58,1.6,1.01.39.44.78,1.04,1.18,1.8l4.45,9.19c.19.32.42.55.69.69.27.14.63.2,1.09.2h2.87c.33,0,.6-.06.79-.19.2-.12.31-.3.33-.53.02-.18-.03-.32-.15-.42-.12-.1-.31-.18-.54-.22-.47-.08-.84-.22-1.09-.4-.25-.18-.47-.46-.68-.83l-4.4-9.15c-.28-.5-.56-.92-.84-1.26-.27-.34-.58-.63-.93-.86-.35-.24-.78-.45-1.29-.64-.69-.23-1.23-.57-1.62-1.04-.39-.47-.63-1.05-.71-1.74-.08-.69-.01-1.46.21-2.31.24-.89.61-1.68,1.11-2.37.5-.69,1.1-1.23,1.79-1.62.69-.39,1.41-.59,2.17-.59ZM704.92,236.07l.62.8,3.88-4.79c.53-.63,1.04-1.12,1.52-1.48.48-.36,1.05-.63,1.72-.82.3-.09.52-.21.68-.35.15-.14.24-.28.27-.44.05-.43-.21-.64-.77-.64h-5.22c-.3,0-.53.07-.7.2-.17.13-.26.3-.28.5-.02.14,0,.27.09.37.08.11.21.18.39.21l1.1.27c.38.11.57.32.57.63s-.22.75-.66,1.29l-3.22,4.24ZM743.7,226.04c-.21,1.22-.63,2.32-1.24,3.3-.61.98-1.38,1.81-2.3,2.48-.92.68-1.96,1.19-3.13,1.55-1.17.36-2.43.53-3.78.53-1.28,0-2.34-.11-3.17-.33-.83-.22-1.66-.54-2.48-.97l.61-1.21c.63.4,1.31.71,2.05.91.74.2,1.51.3,2.31.3,1.29,0,2.44-.25,3.45-.76,1-.5,1.83-1.26,2.48-2.28.65-1.02,1.08-2.29,1.31-3.84.25-1.57.19-2.87-.18-3.91-.37-1.04-.98-1.82-1.84-2.35-.86-.53-1.91-.79-3.16-.79-.72,0-1.29.14-1.68.43-.4.28-.7.75-.9,1.41-.05.15-.15.57-.32,1.26-.17.68-.38,1.54-.65,2.56-.27,1.03-.56,2.14-.86,3.35-.31,1.21-.62,2.42-.93,3.66-.31,1.23-.61,2.4-.9,3.49-.28,1.09-.53,2.04-.74,2.84-.21.8-.35,1.36-.44,1.68-.12.45-.13.78-.03,1,.1.21.28.34.53.39l1.41.21c.23.05.39.12.5.23s.16.24.16.39c0,.2-.08.37-.25.51-.17.14-.4.2-.71.2h-8.01c-.31,0-.53-.06-.65-.17s-.19-.26-.19-.45.08-.35.24-.47c.16-.12.37-.22.61-.28l.93-.16c.4-.07.71-.2.91-.38.2-.18.37-.48.52-.88.12-.33.29-.89.51-1.68.22-.79.48-1.73.77-2.81.3-1.09.61-2.25.93-3.48.32-1.23.64-2.47.95-3.7.31-1.23.61-2.38.88-3.45.27-1.07.5-1.99.69-2.76.18-.77.31-1.3.38-1.59.06-.31.04-.55-.07-.73-.11-.18-.28-.29-.53-.34l-1.1-.25c-.21-.06-.37-.14-.48-.24-.11-.1-.16-.23-.16-.38,0-.24.09-.42.27-.53.18-.12.43-.18.77-.18h8.37c1.47,0,2.78.21,3.92.63,1.14.42,2.08,1.02,2.83,1.8.75.78,1.27,1.69,1.56,2.75.29,1.06.32,2.22.08,3.49ZM745.57,229.28c-.13-.06-.2-.18-.2-.37s.07-.41.21-.67c.28-.52.66-.98,1.12-1.36.46-.39.98-.69,1.55-.9.57-.21,1.16-.32,1.78-.32s1.07.15,1.41.44c.33.29.5.73.5,1.31,0,.49-.1,1.06-.3,1.71-.2.65-.44,1.33-.72,2.04-.28.71-.53,1.39-.76,2.04-.23.65-.36,1.22-.41,1.71l-.28-.04c.39-1.4.88-2.67,1.46-3.8.58-1.13,1.22-2.1,1.92-2.91.7-.81,1.42-1.42,2.17-1.85.75-.43,1.48-.64,2.21-.64.89,0,1.56.25,2.01.75.45.5.66,1.16.64,1.99-.01.62-.13,1.15-.36,1.59-.23.45-.51.79-.86,1.02-.35.24-.73.36-1.15.36-.45,0-.78-.11-1-.32-.21-.21-.32-.46-.32-.75,0-.25.04-.49.12-.72.08-.23.12-.48.12-.76s-.07-.52-.2-.69c-.14-.18-.35-.27-.65-.27-.52,0-1.12.31-1.79.93-.67.62-1.35,1.54-2.03,2.76-.68,1.22-1.32,2.73-1.9,4.53-.27.83-.47,1.49-.6,1.98-.12.49-.19.93-.19,1.32,0,.3.06.53.17.69.11.16.23.31.35.45.12.14.18.35.18.62s-.13.53-.38.76c-.26.23-.63.42-1.11.55-.49.14-1.09.2-1.8.2-.55,0-.95-.12-1.21-.37-.26-.24-.39-.61-.37-1.11.01-.5.15-1.13.41-1.89l2.85-8.65c.32-.95.44-1.61.35-1.99s-.3-.56-.63-.56c-.19,0-.4.06-.62.19-.23.12-.5.35-.84.67-.19.18-.35.29-.47.34-.12.05-.25.04-.37-.02ZM770.43,225.65c1.46.04,2.71.39,3.74,1.07,1.03.68,1.77,1.63,2.22,2.86.45,1.23.51,2.7.2,4.43-.24,1.29-.66,2.48-1.27,3.56-.61,1.08-1.37,2.01-2.26,2.79-.9.78-1.89,1.37-2.99,1.77-1.1.4-2.26.59-3.5.55-1.42-.05-2.64-.41-3.65-1.08-1.01-.67-1.73-1.62-2.17-2.86-.44-1.23-.5-2.71-.2-4.42.24-1.31.66-2.5,1.26-3.57.6-1.07,1.34-2,2.23-2.78.88-.78,1.87-1.37,2.96-1.78,1.09-.41,2.23-.59,3.45-.54ZM766.64,241.21c.52.05,1.03-.02,1.52-.2.49-.18.97-.48,1.42-.88.46-.4.88-.91,1.26-1.5.39-.6.73-1.29,1.03-2.08.3-.79.55-1.66.76-2.61.3-1.48.39-2.72.28-3.7-.11-.99-.38-1.74-.82-2.25-.44-.52-1.02-.8-1.73-.86-.51-.05-1.01.02-1.5.2-.49.18-.95.47-1.4.87-.45.4-.86.9-1.24,1.5-.38.61-.72,1.3-1.02,2.09-.3.79-.55,1.66-.75,2.61-.3,1.48-.39,2.72-.29,3.7.1.99.36,1.73.79,2.24.43.51.98.8,1.66.87ZM798.02,220.98l-4.9,16.67c-.19.65-.3,1.17-.32,1.55-.02.38.02.65.12.81.11.16.27.24.48.24.19,0,.4-.06.62-.19.23-.12.5-.34.82-.65.2-.18.37-.29.49-.34.12-.05.25-.04.37.02.13.06.2.18.2.36s-.07.4-.21.68c-.27.51-.64.96-1.09,1.34-.45.38-.94.68-1.48.89-.53.21-1.09.32-1.66.32-.69,0-1.21-.18-1.56-.53-.35-.35-.53-.85-.53-1.49,0-.36.05-.77.14-1.26.09-.48.25-1.1.46-1.87.21-.77.5-1.74.85-2.91l.5.27c-.76,1.72-1.62,3.16-2.59,4.31-.97,1.15-1.97,2.02-3,2.6-1.03.58-2.05.87-3.05.87-1.33,0-2.34-.44-3.05-1.32-.7-.88-.96-2.26-.78-4.13.12-1.54.53-3.01,1.22-4.4.69-1.39,1.6-2.62,2.72-3.7,1.12-1.07,2.37-1.92,3.75-2.54,1.38-.62,2.83-.93,4.34-.93.78,0,1.45.1,1.99.31.55.21.98.49,1.3.85.32.36.53.78.62,1.26l-2.14.48c-.17-.51-.42-.89-.76-1.14s-.82-.37-1.43-.37c-.76,0-1.51.2-2.26.61-.75.4-1.45.96-2.12,1.67-.66.71-1.26,1.51-1.79,2.41-.53.9-.95,1.86-1.26,2.86-.31,1-.48,2-.52,3-.06,1.08.09,1.85.44,2.31.35.46.82.69,1.4.69.52,0,1.1-.21,1.73-.64.63-.43,1.26-1.02,1.91-1.77.64-.75,1.23-1.63,1.78-2.63.55-1,.99-2.07,1.34-3.21l3.21-10.67c.28-.94.38-1.59.29-1.97-.09-.37-.29-.56-.61-.56-.19,0-.4.06-.63.19-.23.12-.51.35-.83.67-.19.17-.35.27-.47.32-.12.05-.25.05-.37,0-.14-.07-.21-.2-.2-.37,0-.18.07-.4.2-.66.3-.52.67-.98,1.11-1.36.45-.39.96-.69,1.53-.9.58-.21,1.18-.32,1.81-.32.71,0,1.25.16,1.61.49.36.33.56.81.59,1.44.03.64-.09,1.42-.35,2.34ZM816.09,239.04c.14.07.21.2.2.37,0,.18-.07.4-.2.66-.44.8-1.06,1.43-1.87,1.9-.81.47-1.7.7-2.67.7-.64,0-1.15-.15-1.52-.44-.37-.29-.56-.72-.56-1.29,0-.34.07-.74.2-1.18.14-.45.33-.98.58-1.6s.55-1.37.91-2.23c.36-.86.75-1.88,1.19-3.07l.07.73c-.68,1.71-1.45,3.15-2.31,4.31-.86,1.16-1.75,2.1-2.66,2.8-.91.7-1.8,1.21-2.67,1.51-.87.31-1.66.46-2.37.46-.99,0-1.69-.21-2.1-.63-.42-.42-.6-1.02-.56-1.81.04-.78.25-1.71.63-2.78l2.39-6.82c.33-.94.46-1.59.37-1.97-.08-.37-.29-.56-.62-.56-.19,0-.4.06-.62.19-.23.12-.5.35-.82.67-.19.17-.35.27-.48.32-.13.05-.26.05-.37,0-.13-.07-.19-.2-.19-.37,0-.18.07-.4.2-.66.43-.8,1.04-1.42,1.83-1.89.8-.46,1.67-.69,2.64-.69.75,0,1.31.17,1.67.5.37.33.56.81.58,1.44.02.63-.13,1.4-.45,2.31l-2.44,7.02c-.43,1.19-.58,2.02-.45,2.49.13.47.52.71,1.16.71.5,0,1.06-.16,1.69-.49.63-.33,1.28-.81,1.95-1.45.67-.64,1.31-1.45,1.92-2.42.61-.97,1.15-2.11,1.61-3.4.27-.74.48-1.33.62-1.78s.24-.81.3-1.07c.06-.26.09-.48.09-.66,0-.32-.05-.58-.15-.79-.1-.21-.15-.46-.15-.76,0-.5.27-.9.81-1.2.54-.3,1.27-.45,2.2-.45.74,0,1.18.27,1.34.82.15.55.02,1.41-.39,2.58l-3.06,8.62c-.34.94-.47,1.59-.38,1.97.09.37.29.56.61.56.2,0,.41-.06.63-.19.22-.12.5-.35.83-.67.19-.17.35-.27.47-.32.12-.05.25-.05.37,0ZM829.15,227.04c-.8,0-1.58.3-2.35.91-.77.61-1.44,1.43-2.01,2.48-.57,1.05-.96,2.26-1.16,3.64-.3,2.13-.15,3.72.45,4.78.6,1.06,1.52,1.59,2.75,1.58.59,0,1.18-.13,1.77-.38.59-.26,1.12-.63,1.61-1.13.49-.5.87-1.11,1.14-1.83.19-.27.35-.47.48-.6.13-.12.28-.19.46-.19.19,0,.33.09.42.27.09.18.1.43.03.77-.11.59-.34,1.2-.71,1.83-.37.62-.86,1.2-1.49,1.74-.62.53-1.37.96-2.24,1.29s-1.87.49-3,.49c-2.18,0-3.76-.72-4.74-2.16-.97-1.44-1.25-3.4-.82-5.87.21-1.25.61-2.42,1.18-3.51.58-1.09,1.3-2.05,2.17-2.87.87-.82,1.87-1.46,2.98-1.92,1.12-.46,2.31-.69,3.58-.69,1.04,0,1.91.18,2.59.54.68.36,1.19.84,1.52,1.42.33.59.49,1.23.46,1.93-.02.76-.25,1.34-.69,1.75-.43.4-.92.61-1.45.61-.47,0-.84-.12-1.1-.36-.26-.24-.38-.54-.38-.91.01-.32.06-.63.15-.94.09-.31.14-.63.15-.98,0-.5-.16-.9-.47-1.21-.31-.31-.75-.46-1.31-.46ZM839.08,227.91l-1.39-.28c-.19-.06-.34-.15-.44-.28-.1-.12-.15-.26-.15-.42,0-.2.09-.37.27-.49s.42-.19.71-.19h1.58c.27,0,.51-.06.72-.17.21-.11.41-.27.6-.47l1.94-2.62c.15-.19.31-.32.47-.39.16-.07.34-.11.53-.11.21,0,.38.06.49.17.11.11.17.28.17.49,0,.12-.02.29-.06.5-.04.21-.1.46-.19.75l-3.9,12.79c-.37,1.21-.46,2.02-.27,2.41.19.4.61.6,1.25.6.55,0,1.06-.12,1.54-.37.48-.24.98-.66,1.5-1.24.13-.15.25-.26.35-.31.1-.05.2-.08.31-.08.14,0,.25.05.33.14.08.1.1.23.08.39-.04.39-.23.81-.57,1.26-.34.45-.8.88-1.37,1.28-.57.4-1.23.74-1.99,1-.75.26-1.56.39-2.41.39-.91,0-1.6-.19-2.06-.56-.46-.37-.71-.92-.76-1.65-.05-.72.09-1.61.41-2.67l2.56-8.21c.19-.59.26-1,.22-1.23-.04-.23-.2-.37-.49-.45ZM842.09,227.8l.5-1.5h4.81c.42,0,.62.18.62.53,0,.3-.13.53-.39.7-.26.17-.62.26-1.07.26h-4.47ZM864.53,242.69c-1.04,0-1.91-.1-2.59-.29-.68-.2-1.23-.42-1.64-.69-.41-.26-.73-.49-.96-.69-.23-.2-.42-.29-.56-.29-.13,0-.28.09-.45.28-.17.18-.34.39-.53.63-.19.24-.38.45-.56.63-.18.18-.37.28-.54.28-.28,0-.5-.08-.63-.23-.14-.15-.19-.39-.15-.71l.77-6.16c.02-.33.11-.58.27-.76.15-.17.35-.26.59-.26.23,0,.41.08.56.24.15.16.27.39.37.7l.27,1.55c.15,1.42.7,2.51,1.63,3.25.93.74,2.07,1.11,3.41,1.11.89,0,1.68-.16,2.36-.49.68-.33,1.23-.78,1.65-1.37.42-.59.68-1.27.8-2.04.19-1.07.02-2.05-.51-2.96-.53-.9-1.58-1.87-3.16-2.9-1.77-1.15-3.03-2.3-3.78-3.45-.75-1.15-1.03-2.48-.85-4.02.14-1.23.59-2.4,1.34-3.48.75-1.09,1.79-1.96,3.12-2.64,1.33-.67,2.93-1.01,4.81-1.01,1.59,0,2.93.26,4.02.77,1.09.51,1.91,1.17,2.47,1.99.55.81.82,1.67.79,2.57-.02.55-.18,1-.45,1.35-.28.36-.66.53-1.13.53-.42,0-.75-.12-1-.35-.25-.23-.45-.59-.61-1.08l-.32-1.21c-.27-1.1-.76-1.93-1.45-2.47-.69-.54-1.56-.81-2.59-.81s-1.93.2-2.7.59c-.77.39-1.37.92-1.83,1.58-.45.66-.72,1.39-.82,2.2-.17,1.16.05,2.21.65,3.15.6.94,1.67,1.95,3.2,3.03,1.34.9,2.37,1.75,3.09,2.55.72.8,1.2,1.6,1.45,2.41.25.81.32,1.69.21,2.63-.13,1.28-.55,2.4-1.26,3.34-.71.94-1.65,1.68-2.8,2.2-1.16.52-2.47.78-3.93.78ZM879.86,227.91l-1.39-.28c-.19-.06-.34-.15-.44-.28-.1-.12-.15-.26-.15-.42,0-.2.09-.37.27-.49.18-.12.42-.19.71-.19h1.58c.27,0,.51-.06.72-.17.21-.11.41-.27.6-.47l1.94-2.62c.15-.19.31-.32.47-.39s.34-.11.53-.11c.21,0,.38.06.49.17.11.11.17.28.17.49,0,.12-.02.29-.06.5-.04.21-.1.46-.19.75l-3.9,12.79c-.37,1.21-.46,2.02-.27,2.41.19.4.61.6,1.25.6.55,0,1.06-.12,1.54-.37.48-.24.98-.66,1.5-1.24.13-.15.25-.26.35-.31.1-.05.2-.08.31-.08.14,0,.25.05.33.14.08.1.1.23.08.39-.04.39-.23.81-.57,1.26-.34.45-.8.88-1.37,1.28-.57.4-1.23.74-1.99,1-.75.26-1.56.39-2.41.39-.91,0-1.6-.19-2.06-.56-.46-.37-.71-.92-.76-1.65-.05-.72.09-1.61.41-2.67l2.56-8.21c.19-.59.26-1,.22-1.23-.04-.23-.2-.37-.49-.45ZM882.87,227.8l.5-1.5h4.81c.42,0,.62.18.62.53,0,.3-.13.53-.39.7-.26.17-.62.26-1.07.26h-4.47ZM890.64,229.28c-.13-.06-.2-.18-.2-.37s.07-.41.21-.67c.28-.52.66-.98,1.12-1.36.46-.39.98-.69,1.55-.9.57-.21,1.16-.32,1.78-.32s1.07.15,1.41.44c.33.29.5.73.5,1.31,0,.49-.1,1.06-.3,1.71-.2.65-.44,1.33-.72,2.04-.28.71-.53,1.39-.76,2.04-.23.65-.36,1.22-.41,1.71l-.28-.04c.39-1.4.88-2.67,1.46-3.8.58-1.13,1.22-2.1,1.92-2.91.7-.81,1.42-1.42,2.17-1.85.75-.43,1.48-.64,2.21-.64.89,0,1.56.25,2.01.75.45.5.66,1.16.64,1.99-.01.62-.13,1.15-.36,1.59-.23.45-.51.79-.86,1.02-.35.24-.73.36-1.15.36-.45,0-.78-.11-1-.32-.21-.21-.32-.46-.32-.75,0-.25.04-.49.12-.72.08-.23.12-.48.12-.76s-.07-.52-.2-.69c-.14-.18-.35-.27-.65-.27-.52,0-1.12.31-1.79.93-.67.62-1.35,1.54-2.03,2.76-.68,1.22-1.32,2.73-1.9,4.53-.27.83-.47,1.49-.6,1.98-.12.49-.19.93-.19,1.32,0,.3.06.53.17.69.11.16.23.31.35.45.12.14.18.35.18.62s-.13.53-.38.76c-.26.23-.63.42-1.11.55-.49.14-1.09.2-1.8.2-.55,0-.95-.12-1.21-.37-.26-.24-.39-.61-.37-1.11.01-.5.15-1.13.41-1.89l2.85-8.65c.32-.95.44-1.61.35-1.99-.09-.37-.3-.56-.63-.56-.19,0-.4.06-.62.19-.23.12-.5.35-.84.67-.19.18-.35.29-.47.34-.12.05-.25.04-.37-.02ZM918.76,237.69c-.24.99-.32,1.66-.24,2.02.08.36.26.54.54.54.21,0,.43-.06.64-.19.21-.12.48-.34.8-.65.19-.18.35-.29.48-.34.13-.05.26-.04.37.02.13.06.19.18.19.36,0,.18-.07.4-.2.68-.43.77-1.04,1.39-1.83,1.85-.79.46-1.6.69-2.43.69-.69,0-1.2-.17-1.53-.52-.33-.34-.5-.84-.5-1.5,0-.27.02-.58.06-.91.04-.33.12-.74.24-1.24.12-.49.28-1.1.5-1.83.21-.73.49-1.63.82-2.7l.34.59c-.65,1.72-1.44,3.18-2.36,4.39-.92,1.21-1.91,2.13-2.98,2.76s-2.16.95-3.28.95c-1.26,0-2.23-.42-2.91-1.26-.68-.84-.93-2.17-.76-3.99.11-1.19.41-2.35.9-3.49.49-1.14,1.14-2.21,1.94-3.21.8-1,1.73-1.88,2.78-2.64,1.05-.75,2.19-1.34,3.42-1.77,1.23-.43,2.51-.64,3.86-.64,1,0,1.83.07,2.49.21.66.14,1.16.34,1.49.59.33.25.48.53.45.84-.02.25-.11.45-.26.59-.15.14-.3.28-.45.43-.15.14-.27.34-.34.59l-2.24,8.78ZM908.48,237.28c-.12,1.23-.02,2.1.29,2.61.31.5.76.76,1.34.76.53,0,1.1-.21,1.71-.64.61-.43,1.21-1.02,1.83-1.77.61-.75,1.18-1.63,1.72-2.62.53-.99,1-2.06,1.41-3.21.4-1.15.69-2.33.87-3.54.11-.61.07-1.05-.12-1.33-.18-.28-.48-.42-.9-.42-.74,0-1.48.19-2.22.57-.74.38-1.45.91-2.12,1.58-.67.67-1.28,1.44-1.82,2.31-.54.87-.99,1.79-1.34,2.76-.35.97-.57,1.96-.67,2.96ZM927.84,227.91l-1.39-.28c-.19-.06-.34-.15-.44-.28-.1-.12-.15-.26-.15-.42,0-.2.09-.37.27-.49.18-.12.42-.19.71-.19h1.58c.27,0,.51-.06.72-.17.21-.11.41-.27.6-.47l1.94-2.62c.15-.19.31-.32.47-.39s.34-.11.53-.11c.21,0,.38.06.49.17.11.11.17.28.17.49,0,.12-.02.29-.06.5-.04.21-.1.46-.19.75l-3.9,12.79c-.37,1.21-.46,2.02-.27,2.41.19.4.61.6,1.25.6.55,0,1.06-.12,1.54-.37.48-.24.98-.66,1.5-1.24.13-.15.25-.26.35-.31.1-.05.2-.08.31-.08.14,0,.25.05.33.14.08.1.1.23.08.39-.04.39-.23.81-.57,1.26-.34.45-.8.88-1.37,1.28-.57.4-1.23.74-1.99,1-.75.26-1.56.39-2.41.39-.91,0-1.6-.19-2.06-.56-.46-.37-.71-.92-.76-1.65-.05-.72.09-1.61.41-2.67l2.56-8.21c.19-.59.26-1,.22-1.23-.04-.23-.2-.37-.49-.45ZM930.85,227.8l.5-1.5h4.81c.42,0,.62.18.62.53,0,.3-.13.53-.39.7-.26.17-.62.26-1.07.26h-4.47ZM939.06,234.95c.89-.33,1.69-.63,2.4-.9.71-.27,1.48-.56,2.31-.87.83-.31,1.63-.62,2.42-.92.79-.3,1.47-.56,2.04-.78l-.41.57c.09-.3.17-.63.22-1,.05-.37.08-.81.08-1.32,0-.8-.17-1.45-.51-1.96-.34-.51-.79-.77-1.36-.77s-1.13.21-1.73.63c-.59.42-1.15,1-1.67,1.75-.52.74-.96,1.61-1.32,2.61-.36,1-.58,2.08-.66,3.24-.13,1.75.14,3.06.8,3.94.66.88,1.61,1.33,2.83,1.33.72,0,1.43-.14,2.12-.43.69-.28,1.31-.69,1.86-1.23.55-.53.98-1.19,1.29-1.96.17-.26.31-.44.45-.53.13-.09.27-.13.43-.13.19.01.34.1.45.26.11.16.12.41.04.76-.18.93-.61,1.8-1.31,2.64-.69.83-1.62,1.5-2.78,2.02-1.16.52-2.54.77-4.14.77-1.37,0-2.49-.26-3.38-.77-.89-.52-1.54-1.25-1.94-2.21-.4-.96-.56-2.1-.46-3.45.09-1.42.42-2.77.99-4.04.56-1.27,1.3-2.4,2.22-3.38.91-.99,1.95-1.76,3.1-2.32,1.15-.56,2.36-.85,3.62-.85.94,0,1.72.18,2.35.55.63.37,1.11.86,1.44,1.48.33.62.52,1.3.57,2.05.02.18.08.33.16.44.08.12.2.18.36.18.17,0,.29.04.37.11.08.07.12.18.12.32,0,.18-.08.34-.23.5-.15.15-.45.31-.89.46-.47.17-1.1.39-1.86.67-.77.28-1.6.58-2.51.91-.91.33-1.82.65-2.72.98-.91.33-1.74.63-2.49.9-.75.27-1.59.58-2.5.91l-.14-1.16ZM967.35,242.25c-.44,2.03-1.2,3.71-2.28,5.05-1.08,1.34-2.42,2.34-4.03,3-1.61.66-3.43,1-5.46,1-1.39,0-2.43-.22-3.12-.66-.69-.44-1.03-1-1.03-1.69,0-.46.16-.86.49-1.18.33-.33.77-.49,1.33-.49.43,0,.83.11,1.21.34.38.23.75.49,1.11.79.36.3.73.57,1.11.8.38.23.77.35,1.18.35.8,0,1.55-.17,2.25-.52.71-.34,1.33-.91,1.88-1.68.55-.78.97-1.81,1.28-3.09l2.3-9.47.53.37c-.61,1.58-1.34,2.93-2.22,4.06-.87,1.13-1.83,1.99-2.88,2.57-1.04.59-2.14.88-3.28.88-.82,0-1.52-.18-2.11-.53s-1.02-.91-1.31-1.66c-.28-.75-.38-1.7-.28-2.87.09-1.21.38-2.4.85-3.57.47-1.17,1.1-2.26,1.88-3.28.78-1.02,1.7-1.91,2.75-2.67,1.05-.77,2.2-1.36,3.45-1.8s2.57-.65,3.97-.65c.97,0,1.79.07,2.44.2.65.13,1.14.31,1.45.55.31.24.45.5.42.78-.02.27-.1.47-.24.61-.14.13-.28.26-.43.4-.15.14-.25.34-.31.61l-2.9,13.44ZM957.79,237.26c-.06.84-.02,1.5.13,1.99.15.48.37.82.66,1.02.29.2.62.29.99.29.61,0,1.23-.23,1.86-.7.64-.47,1.26-1.11,1.86-1.91.61-.81,1.16-1.71,1.66-2.72s.91-2.05,1.24-3.13c.33-1.09.53-2.14.6-3.16.06-.63,0-1.09-.17-1.38-.17-.29-.46-.44-.86-.44-.7,0-1.42.19-2.15.56-.73.37-1.42.89-2.08,1.55s-1.26,1.42-1.79,2.28c-.53.86-.97,1.78-1.31,2.76-.34.98-.55,1.98-.63,3ZM977.66,237.69c-.33.94-.45,1.59-.37,1.97.09.37.29.56.61.56.19,0,.4-.06.62-.19.23-.12.5-.35.82-.67.2-.17.37-.27.49-.32.12-.05.25-.05.37,0,.13.07.19.2.19.37,0,.18-.07.4-.2.66-.43.8-1.04,1.42-1.83,1.89-.8.46-1.67.69-2.64.69-.74,0-1.29-.17-1.67-.5-.37-.33-.57-.82-.58-1.45-.01-.63.15-1.41.48-2.32l2.87-7.73c.34-.94.47-1.6.38-1.98-.09-.38-.29-.57-.61-.57-.19,0-.4.06-.63.19-.23.12-.51.35-.83.67-.19.18-.35.29-.48.34-.13.05-.26.04-.37-.02-.13-.06-.19-.18-.19-.37,0-.18.07-.41.2-.67.43-.78,1.04-1.41,1.83-1.88.79-.47,1.66-.7,2.61-.7.68,0,1.2.16,1.58.49.38.33.59.82.62,1.47.04.65-.12,1.46-.46,2.42l-2.81,7.64ZM980.03,222.3c-.75,0-1.32-.21-1.72-.62-.4-.42-.57-.91-.51-1.5.05-.46.22-.89.52-1.29.3-.4.69-.72,1.17-.96.48-.24,1.02-.36,1.63-.36.8,0,1.38.21,1.75.62.37.42.52.92.45,1.51-.05.47-.22.91-.51,1.3-.29.39-.67.71-1.15.94-.47.24-1.02.36-1.62.36ZM989.03,241.36c.8,0,1.44-.2,1.92-.61.49-.41.73-.93.73-1.58,0-.36-.07-.7-.22-1.04-.15-.34-.43-.72-.84-1.13-.41-.42-1.01-.91-1.81-1.5-.85-.65-1.53-1.23-2.02-1.72-.49-.49-.84-.98-1.05-1.47-.21-.49-.31-1.04-.31-1.66,0-.9.28-1.73.83-2.49.55-.76,1.34-1.37,2.36-1.83,1.02-.46,2.25-.69,3.69-.69,1.12,0,2.06.15,2.82.46.77.31,1.35.72,1.75,1.22.4.5.6,1.05.6,1.65,0,.46-.11.83-.32,1.09-.21.26-.5.39-.87.39-.34,0-.65-.11-.91-.34-.26-.23-.52-.62-.77-1.19-.32-.66-.7-1.17-1.15-1.52-.45-.35-.98-.53-1.61-.53-.89,0-1.6.23-2.13.7-.53.47-.79,1.07-.79,1.79,0,.37.07.73.22,1.09.15.36.43.75.84,1.18.41.43,1.01.96,1.79,1.59.91.69,1.62,1.29,2.12,1.81.5.52.84,1.01,1.03,1.48.19.47.29.99.29,1.56,0,.89-.27,1.68-.82,2.37-.55.69-1.32,1.23-2.31,1.63-1,.4-2.17.6-3.53.6-1.21,0-2.23-.18-3.06-.53-.83-.35-1.46-.81-1.9-1.37-.43-.56-.65-1.15-.65-1.75.01-.44.12-.79.33-1.05.21-.26.48-.39.83-.39.38,0,.71.12,1,.37.28.25.56.65.82,1.19.42.81.88,1.38,1.4,1.71.52.33,1.09.5,1.72.5ZM1001.92,227.91l-1.39-.28c-.19-.06-.34-.15-.44-.28-.1-.12-.15-.26-.15-.42,0-.2.09-.37.27-.49.18-.12.42-.19.71-.19h1.59c.27,0,.51-.06.72-.17.21-.11.41-.27.6-.47l1.94-2.62c.15-.19.31-.32.47-.39.16-.07.34-.11.53-.11.21,0,.38.06.49.17.11.11.17.28.17.49,0,.12-.02.29-.06.5-.04.21-.1.46-.19.75l-3.9,12.79c-.37,1.21-.46,2.02-.27,2.41.19.4.61.6,1.25.6.55,0,1.06-.12,1.54-.37.48-.24.98-.66,1.5-1.24.13-.15.25-.26.35-.31.1-.05.2-.08.31-.08.14,0,.25.05.33.14.08.1.1.23.08.39-.04.39-.23.81-.57,1.26-.34.45-.8.88-1.37,1.28-.57.4-1.23.74-1.99,1-.75.26-1.56.39-2.41.39-.91,0-1.6-.19-2.06-.56-.46-.37-.71-.92-.76-1.65-.05-.72.09-1.61.41-2.67l2.56-8.21c.19-.59.26-1,.22-1.23-.04-.23-.2-.37-.49-.45ZM1004.93,227.8l.5-1.5h4.81c.42,0,.62.18.62.53,0,.3-.13.53-.39.7-.26.17-.62.26-1.07.26h-4.47Z" fill="#4a4e58"/>
      <g>
        <path d="M250.71,188.92v-60.62h19.47v22.12h21.41v-22.12h19.47v60.62h-19.47v-23h-21.41v23h-19.47Z" fill="#f1f2f2"/>
        <path d="M318.47,188.92l22.12-60.62h22.65l22.12,60.62h-20.62l-2.56-8.55h-21.24l-2.55,8.55h-19.91ZM344.99,166.8h13.22l-2.91-9.69c-.24-.71-.5-1.56-.79-2.56-.29-1-.59-2.06-.88-3.17-.29-1.12-.59-2.22-.88-3.3-.29-1.09-.56-2.04-.79-2.86h-.71c-.24,1.06-.54,2.26-.92,3.61-.38,1.35-.78,2.75-1.19,4.19-.41,1.44-.82,2.81-1.23,4.1l-2.91,9.69Z" fill="#f1f2f2"/>
        <path d="M392.66,188.92v-60.62h27.14l5.55,21.32c.23.76.57,2.03,1.01,3.79s.91,3.67,1.41,5.73c.5,2.06.95,3.97,1.37,5.73h.71c.29-1.29.66-2.83,1.1-4.63.44-1.79.89-3.63,1.37-5.51.47-1.88.88-3.58,1.23-5.11l5.55-21.32h26.17v60.62h-18.59v-21.85c0-2.35.01-4.77.04-7.27.03-2.5.06-4.86.09-7.09.03-2.23.04-4.08.04-5.55h-.71c-.18,1.18-.43,2.56-.75,4.14-.32,1.59-.66,3.16-1.01,4.71-.35,1.56-.7,2.92-1.06,4.1l-7.84,28.81h-14.54l-7.93-28.81c-.29-1.17-.63-2.54-1.01-4.1-.38-1.56-.72-3.13-1.01-4.71-.29-1.59-.56-2.94-.79-4.05h-.71c.06,1.47.12,3.32.18,5.55.06,2.23.1,4.58.13,7.05.03,2.47.04,4.88.04,7.23v21.85h-17.18Z" fill="#f1f2f2"/>
        <path d="M473.9,188.92v-6.26l28.11-39.83h-25.99v-14.54h55.95v6.26l-28.11,39.83h28.81v14.54h-58.77Z" fill="#f1f2f2"/>
        <path d="M536.28,188.92l22.12-60.62h22.65l22.12,60.62h-20.62l-2.56-8.55h-21.24l-2.55,8.55h-19.91ZM562.8,166.8h13.22l-2.91-9.69c-.24-.71-.5-1.56-.79-2.56-.29-1-.59-2.06-.88-3.17-.29-1.12-.59-2.22-.88-3.3-.29-1.09-.56-2.04-.79-2.86h-.71c-.24,1.06-.54,2.26-.92,3.61-.38,1.35-.78,2.75-1.19,4.19-.41,1.44-.82,2.81-1.23,4.1l-2.91,9.69Z" fill="#f1f2f2"/>
      </g>
      <g>
        <path d="M626.01,188.92l24.38-65.84h11.71l24.47,65.84h-9.69l-6.14-16.6h-29.56l-5.95,16.6h-9.21ZM643.86,164.73h24.19l-7.49-20.83c-.19-.58-.46-1.36-.82-2.35-.35-.99-.74-2.08-1.15-3.26-.42-1.18-.82-2.4-1.2-3.65s-.77-2.41-1.15-3.5h-.48c-.38,1.28-.85,2.72-1.39,4.32-.54,1.6-1.07,3.15-1.58,4.65-.51,1.5-.96,2.77-1.34,3.79l-7.58,20.83Z" fill="#c8203b"/>
        <path d="M721.02,190.07c-3.39,0-6.66-.35-9.79-1.06-3.14-.7-5.9-1.82-8.3-3.36-2.4-1.54-4.3-3.55-5.71-6.05-1.41-2.5-2.11-5.6-2.11-9.31,0-.25.02-.56.05-.91.03-.35.05-.66.05-.91h9.02c0,.13-.02.4-.05.82-.03.42-.05.78-.05,1.1,0,2.62.7,4.83,2.11,6.62,1.41,1.79,3.36,3.14,5.85,4.03,2.5.9,5.38,1.34,8.64,1.34,1.54,0,3.1-.11,4.7-.34,1.6-.22,3.12-.59,4.56-1.1,1.44-.51,2.72-1.18,3.84-2.02,1.12-.83,2.02-1.84,2.69-3.02.67-1.18,1.01-2.64,1.01-4.37,0-2.11-.58-3.9-1.73-5.37-1.15-1.47-2.7-2.67-4.66-3.6-1.95-.93-4.14-1.76-6.57-2.5-2.43-.73-4.93-1.45-7.49-2.16-2.56-.7-5.06-1.52-7.49-2.45-2.43-.93-4.61-2.08-6.53-3.46-1.92-1.38-3.47-3.07-4.65-5.09-1.18-2.02-1.78-4.46-1.78-7.34s.54-5.41,1.63-7.58c1.09-2.17,2.67-4,4.75-5.47,2.08-1.47,4.67-2.61,7.77-3.41,3.1-.8,6.61-1.2,10.51-1.2,3.26,0,6.33.35,9.21,1.06,2.88.7,5.39,1.82,7.53,3.36,2.14,1.54,3.81,3.44,4.99,5.71,1.18,2.27,1.78,5.04,1.78,8.3v1.25h-8.83v-1.44c0-2.24-.61-4.14-1.82-5.71-1.22-1.57-2.91-2.75-5.09-3.55-2.18-.8-4.67-1.2-7.49-1.2-3.52,0-6.46.35-8.83,1.06-2.37.7-4.13,1.76-5.28,3.17-1.15,1.41-1.73,3.01-1.73,4.8,0,1.98.58,3.66,1.73,5.04,1.15,1.38,2.69,2.48,4.61,3.31,1.92.83,4.11,1.62,6.57,2.35,2.46.74,4.97,1.47,7.53,2.21,2.56.74,5.05,1.58,7.49,2.54,2.43.96,4.62,2.11,6.57,3.46,1.95,1.34,3.49,3.06,4.61,5.13,1.12,2.08,1.68,4.59,1.68,7.53,0,4.74-1.07,8.54-3.22,11.42-2.14,2.88-5.13,4.99-8.97,6.33-3.84,1.34-8.29,2.01-13.34,2.01Z" fill="#c8203b"/>
        <path d="M762.39,188.92v-65.84h9.02v28.31h33.21v-28.31h9.02v65.84h-9.02v-29.66h-33.21v29.66h-9.02Z" fill="#c8203b"/>
        <path d="M832.54,188.92v-65.84h32.15c4.48,0,8.17.82,11.08,2.45,2.91,1.63,5.07,3.89,6.48,6.77,1.41,2.88,2.11,6.17,2.11,9.89,0,4.54-.98,8.45-2.93,11.71-1.95,3.26-4.65,5.6-8.11,7.01l13.44,28.02h-9.79l-12.48-26.3h-22.94v26.3h-9.02ZM841.56,155.04h22.27c3.65,0,6.48-1.14,8.49-3.41,2.02-2.27,3.02-5.39,3.02-9.36,0-2.43-.43-4.48-1.3-6.14-.86-1.66-2.14-2.96-3.84-3.89-1.7-.93-3.86-1.39-6.48-1.39h-22.17v24.19Z" fill="#c8203b"/>
        <path d="M894.64,188.92l24.38-65.84h11.71l24.47,65.84h-9.69l-6.14-16.6h-29.56l-5.95,16.6h-9.21ZM912.49,164.73h24.19l-7.49-20.83c-.19-.58-.46-1.36-.82-2.35-.35-.99-.74-2.08-1.15-3.26-.42-1.18-.82-2.4-1.2-3.65s-.77-2.41-1.15-3.5h-.48c-.38,1.28-.85,2.72-1.39,4.32-.54,1.6-1.07,3.15-1.58,4.65-.51,1.5-.96,2.77-1.34,3.79l-7.58,20.83Z" fill="#c8203b"/>
        <path d="M966.9,188.92v-65.84h43.96v7.77h-34.93v21.31h31.67v7.58h-31.67v29.18h-9.02Z" fill="#c8203b"/>
      </g>
      <g>
        <path d="M136.06,137.93c3.01,0,5.25,2.8,4.57,5.74l-16.65,103.77c-.34,1.48-1.65,2.52-3.16,2.52h-21.62c-1.09,0-1.9-1.02-1.65-2.07l17.79-108.85c.15-.65.71-1.09,1.38-1.09h19.34v-.02Z" fill="#c8203b"/>
        <path d="M195.74,113.39c-.36,10.2-1.82,20.02-4.21,29.3-.07.22-.12.46-.19.68-4.27,16.08-11.39,30.49-20.58,42.23-14.6,18.63-34.41,30.47-56.37,31.54-1.09.08-2.19.1-3.3.1-3.26,0-6.51-.24-9.72-.7-4.23-.63-8.41-1.67-12.47-3.08-5.59-1.94-10.96-4.61-16.08-7.94-2.41-1.58-3.87-4.27-3.87-7.14v-15.92c0-5.18,6.19-7.99,9.98-4.47,4.89,4.54,10.2,8,15.77,10.3,4.03,1.67,8.21,2.72,12.46,3.09,1.31.14,2.62.2,3.94.2,3.19,0,6.36-.36,9.41-1.07,19.61-4.45,36.01-22.55,44.08-47.14.1-.22.15-.46.24-.68,2.84-8.73,4.62-18.29,5.15-28.33" fill="#f1f2f2"/>
        <path d="M195.73,110.94v136.21c0,1.51-1.39,2.75-3.09,2.75v-.02h-14.46c-4.49,0-8.12-3.23-8.12-7.21V112.97" fill="#f1f2f2"/>
      </g>
    </g>
  </g>
</svg>